/* XPM */
static char * font080046_xpm[] = {
"4 8 2 1",
" 	c #FFFFFF",
".	c #000000",
"    ",
"....",
".   ",
"... ",
".   ",
".   ",
".   ",
"    "};
