/* XPM */
static char * font08005b_xpm[] = {
"2 8 2 1",
" 	c None",
".	c #000000",
"  ",
"..",
". ",
". ",
". ",
". ",
". ",
".."};
