/* XPM */
static char * font082265_xpm[] = {
"3 8 2 1",
" 	c #FFFFFF",
".	c #000000",
"   ",
".  ",
" . ",
"  .",
" . ",
".  ",
"...",
"   "};
