/* XPM */
static char * font080049_xpm[] = {
"1 8 2 1",
" 	c None",
".	c #000000",
" ",
".",
".",
".",
".",
".",
".",
" "};
