/* XPM */
static char * font080027_xpm[] = {
"1 8 2 1",
" 	c #FFFFFF",
".	c #000000",
".",
".",
" ",
" ",
" ",
" ",
" ",
" "};
