/* XPM */
static char * font08002d_xpm[] = {
"3 8 2 1",
" 	c #FFFFFF",
".	c #000000",
"   ",
"   ",
"   ",
"   ",
"...",
"   ",
"   ",
"   "};
