/* XPM */
static char * font080031_xpm[] = {
"2 8 2 1",
" 	c None",
".	c #000000",
"  ",
" .",
"..",
" .",
" .",
" .",
" .",
"  "};
