/* XPM */
static char * font080048_xpm[] = {
"5 8 2 1",
" 	c None",
".	c #000000",
"     ",
".   .",
".   .",
".....",
".   .",
".   .",
".   .",
"     "};
