/* XPM */
static char * font080060_xpm[] = {
"2 8 2 1",
" 	c None",
".	c #000000",
". ",
" .",
"  ",
"  ",
"  ",
"  ",
"  ",
"  "};
