/* XPM */
static char * font08005f_xpm[] = {
"5 8 2 1",
" 	c None",
".	c #000000",
"     ",
"     ",
"     ",
"     ",
"     ",
"     ",
"     ",
"....."};
