/* XPM */
static char * font08002f_xpm[] = {
"2 8 2 1",
" 	c #FFFFFF",
".	c #000000",
"  ",
" .",
" .",
" .",
". ",
". ",
". ",
". "};
