/* XPM */
static char * font080067_xpm[] = {
"4 8 2 1",
" 	c None",
".	c #000000",
"    ",
"    ",
" ...",
".  .",
".  .",
" ...",
"   .",
" .. "};
