/* XPM */
static char * font08004b_xpm[] = {
"4 8 2 1",
" 	c #FFFFFF",
".	c #000000",
"    ",
".  .",
". . ",
"..  ",
"... ",
".  .",
".  .",
"    "};
