/* XPM */
static char * font080069_xpm[] = {
"1 8 2 1",
" 	c #FFFFFF",
".	c #000000",
".",
" ",
".",
".",
".",
".",
".",
" "};
