/* XPM */
static char * font080057_xpm[] = {
"7 8 2 1",
" 	c None",
".	c #000000",
"       ",
".  .  .",
".  .  .",
".  .  .",
" .. .. ",
" .  .  ",
" .  .  ",
"       "};
