/* XPM */
static char * font080040_xpm[] = {
"8 8 2 1",
" 	c None",
".	c #000000",
"        ",
"  ..... ",
" .     .",
".  ..  .",
". .  . .",
".  .... ",
".       ",
" ....   "};
