/* XPM */
static char * font08006f_xpm[] = {
"4 8 2 1",
" 	c None",
".	c #000000",
"    ",
"    ",
" .. ",
".  .",
".  .",
".  .",
" .. ",
"    "};
