/* XPM */
static char * font080037_xpm[] = {
"4 8 2 1",
" 	c None",
".	c #000000",
"    ",
"....",
"   .",
"  . ",
" .  ",
" .  ",
" .  ",
"    "};
