/* XPM */
static char * font080042_xpm[] = {
"4 8 2 1",
" 	c None",
".	c #000000",
"    ",
"... ",
".  .",
"... ",
".  .",
".  .",
"... ",
"    "};
