/* XPM */
static char * font080054_xpm[] = {
"3 8 2 1",
" 	c None",
".	c #000000",
"   ",
"...",
" . ",
" . ",
" . ",
" . ",
" . ",
"   "};
