/* XPM */
static char * font08003d_xpm[] = {
"3 8 2 1",
" 	c None",
".	c #000000",
"   ",
"   ",
"   ",
"...",
"   ",
"...",
"   ",
"   "};
