/* XPM */
static char * font08005a_xpm[] = {
"4 8 2 1",
" 	c None",
".	c #000000",
"    ",
"....",
"   .",
"  . ",
" .  ",
".   ",
"....",
"    "};
