/* XPM */
static char * font080028_xpm[] = {
"2 8 2 1",
" 	c #FFFFFF",
".	c #000000",
"  ",
" .",
". ",
". ",
". ",
". ",
". ",
" ."};
