/* XPM */
static char * font080036_xpm[] = {
"4 8 2 1",
" 	c None",
".	c #000000",
"    ",
" ...",
".   ",
"... ",
".  .",
".  .",
" .. ",
"    "};
