/* XPM */
static char * font08002e_xpm[] = {
"1 8 2 1",
" 	c None",
".	c #000000",
" ",
" ",
" ",
" ",
" ",
" ",
".",
" "};
