/* XPM */
static char * font080044_xpm[] = {
"5 8 2 1",
" 	c #FFFFFF",
".	c #000000",
"     ",
".... ",
".   .",
".   .",
".   .",
".   .",
".... ",
"     "};
