/* XPM */
static char * font080053_xpm[] = {
"4 8 2 1",
" 	c #FFFFFF",
".	c #000000",
"    ",
" ...",
".   ",
"... ",
"   .",
"   .",
"... ",
"    "};
