/* XPM */
static char * font080066_xpm[] = {
"3 8 2 1",
" 	c None",
".	c #000000",
"  .",
" . ",
"...",
" . ",
" . ",
" . ",
" . ",
"   "};
