/* XPM */
static char * font08unknown_xpm[] = {
"4 8 2 1",
" 	c #FFFFFF",
".	c #000000",
"....",
".  .",
".  .",
".  .",
".  .",
".  .",
".  .",
"...."};
