/* XPM */
static char * font080034_xpm[] = {
"4 8 2 1",
" 	c #FFFFFF",
".	c #000000",
"    ",
"  . ",
"  . ",
" .. ",
"....",
"  . ",
"  . ",
"    "};
