/* XPM */
static char * font080025_xpm[] = {
"6 8 2 1",
" 	c #FFFFFF",
".	c #000000",
"      ",
"... . ",
". . . ",
".. .  ",
"  . ..",
" . . .",
" . ...",
"      "};
