/* XPM */
static char * font08006d_xpm[] = {
"5 8 2 1",
" 	c #FFFFFF",
".	c #000000",
"     ",
"     ",
".... ",
". . .",
". . .",
". . .",
". . .",
"     "};
