/* XPM */
static char * font08007c_xpm[] = {
"1 8 2 1",
" 	c None",
".	c #000000",
" ",
".",
".",
".",
".",
".",
".",
"."};
