/* XPM */
static char * font08002b_xpm[] = {
"5 8 2 1",
" 	c #FFFFFF",
".	c #000000",
"     ",
"     ",
"  .  ",
"  .  ",
".....",
"  .  ",
"  .  ",
"     "};
