/* XPM */
static char * font080043_xpm[] = {
"5 8 2 1",
" 	c None",
".	c #000000",
"     ",
" ... ",
".   .",
".    ",
".    ",
".   .",
" ... ",
"     "};
