/* XPM */
static const char *watchbreak_xpm[]={
"12 12 3 1",
". c None",
"# c #ff0000",
"a c #ffffff",
"...######...",
"..###aa###..",
".####aa####.",
"#####aa#####",
"#####aa#####",
"#####aa#####",
"#####aa#####",
"#####aa#####",
"############",
".####aa####.",
"..###aa###..",
"...######..."};
