/* XPM */
static char * font100073_xpm[] = {
"4 10 2 1",
" 	c #FFFFFF",
".	c #000000",
"    ",
"    ",
" .. ",
".  .",
" .. ",
"   .",
".  .",
" .. ",
"    ",
"    "};
