/* XPM */
static char * font10002f_xpm[] = {
"3 10 2 1",
" 	c None",
".	c #000000",
"  .",
"  .",
" . ",
" . ",
" . ",
" . ",
".  ",
".  ",
"   ",
"   "};
