/* XPM */
static char * font100079_xpm[] = {
"4 10 2 1",
" 	c #FFFFFF",
".	c #000000",
"    ",
"    ",
".  .",
".  .",
". . ",
". . ",
" .. ",
" .  ",
" .  ",
".   "};
