/* XPM */
static char * font10006a_xpm[] = {
"1 10 2 1",
" 	c None",
".	c #000000",
".",
" ",
".",
".",
".",
".",
".",
".",
".",
" "};
