/* XPM */
static char * font10003a_xpm[] = {
"1 10 2 1",
" 	c #FFFFFF",
".	c #000000",
" ",
" ",
".",
" ",
" ",
" ",
" ",
".",
" ",
" "};
