/* XPM */
static char * font100059_xpm[] = {
"7 10 2 1",
" 	c None",
".	c #000000",
".     .",
" .   . ",
" .   . ",
"  . .  ",
"  . .  ",
"   .   ",
"   .   ",
"   .   ",
"       ",
"       "};
