/* XPM */
static char * font10003b_xpm[] = {
"2 10 2 1",
" 	c #FFFFFF",
".	c #000000",
"  ",
"  ",
" .",
"  ",
"  ",
"  ",
"  ",
" .",
" .",
". "};
