/* XPM */
static char * font100074_xpm[] = {
"3 10 2 1",
" 	c None",
".	c #000000",
" . ",
" . ",
"...",
" . ",
" . ",
" . ",
" . ",
" ..",
"   ",
"   "};
