/* XPM */
static char * font10004f_xpm[] = {
"6 10 2 1",
" 	c #FFFFFF",
".	c #000000",
" .... ",
".    .",
".    .",
".    .",
".    .",
".    .",
".    .",
" .... ",
"      ",
"      "};
