/* XPM */
static char * font100050_xpm[] = {
"5 10 2 1",
" 	c None",
".	c #000000",
".... ",
".   .",
".   .",
".... ",
".    ",
".    ",
".    ",
".    ",
"     ",
"     "};
