/* XPM */
static char * font10007e_xpm[] = {
"6 10 2 1",
" 	c #FFFFFF",
".	c #000000",
"      ",
"      ",
"      ",
" ..  .",
".  .. ",
"      ",
"      ",
"      ",
"      ",
"      "};
