/* XPM */
static char * font10004e_xpm[] = {
"6 10 2 1",
" 	c None",
".	c #000000",
"..   .",
"..   .",
". .  .",
". .  .",
".  . .",
".  . .",
".   ..",
".   ..",
"      ",
"      "};
