/* XPM */
static char * font100047_xpm[] = {
"6 10 2 1",
" 	c #FFFFFF",
".	c #000000",
" .... ",
".    .",
".     ",
".     ",
".   ..",
".    .",
".   ..",
" ... .",
"      ",
"      "};
