/* XPM */
static char * font100051_xpm[] = {
"7 10 2 1",
" 	c #FFFFFF",
".	c #000000",
" ....  ",
".    . ",
".    . ",
".    . ",
".    . ",
".  . . ",
".   .. ",
" ..... ",
"      .",
"       "};
