/* XPM */
static char * font100065_xpm[] = {
"4 10 2 1",
" 	c #FFFFFF",
".	c #000000",
"    ",
"    ",
" .. ",
".  .",
"....",
".   ",
".  .",
" .. ",
"    ",
"    "};
