/* XPM */
static char * font100075_xpm[] = {
"4 10 2 1",
" 	c #FFFFFF",
".	c #000000",
"    ",
"    ",
".  .",
".  .",
".  .",
".  .",
".  .",
" ...",
"    ",
"    "};
