/* XPM */
static char * font100043_xpm[] = {
"6 10 2 1",
" 	c #FFFFFF",
".	c #000000",
" .... ",
".    .",
".     ",
".     ",
".     ",
".     ",
".    .",
" .... ",
"      ",
"      "};
