/* XPM */
static char * font100056_xpm[] = {
"7 10 2 1",
" 	c None",
".	c #000000",
".     .",
".     .",
" .   . ",
" .   . ",
" .   . ",
"  . .  ",
"  . .  ",
"   .   ",
"       ",
"       "};
