/* XPM */
static char * font100023_xpm[] = {
"6 10 2 1",
" 	c None",
".	c #000000",
"      ",
"  . . ",
"  . . ",
" .....",
"  . . ",
"..... ",
" . .  ",
" . .  ",
"      ",
"      "};
