/* XPM */
static char * font10002b_xpm[] = {
"5 10 2 1",
" 	c None",
".	c #000000",
"     ",
"     ",
"  .  ",
"  .  ",
".....",
"  .  ",
"  .  ",
"     ",
"     ",
"     "};
