/* XPM */
static char * font10007d_xpm[] = {
"3 10 2 1",
" 	c #FFFFFF",
".	c #000000",
".  ",
" . ",
" . ",
" . ",
"  .",
" . ",
" . ",
" . ",
" . ",
".  "};
