/* XPM */
static char * font10002d_xpm[] = {
"3 10 2 1",
" 	c #FFFFFF",
".	c #000000",
"   ",
"   ",
"   ",
"   ",
"...",
"   ",
"   ",
"   ",
"   ",
"   "};
