/* XPM */
static char * font100027_xpm[] = {
"1 10 2 1",
" 	c #FFFFFF",
".	c #000000",
".",
".",
" ",
" ",
" ",
" ",
" ",
" ",
" ",
" "};
