/* XPM */
static char * font100025_xpm[] = {
"8 10 2 1",
" 	c None",
".	c #000000",
" ..  .  ",
".  . .  ",
" .. .   ",
"    .   ",
"   .    ",
"   . .. ",
"  . .  .",
"  .  .. ",
"        ",
"        "};
