/* XPM */
static char * font100037_xpm[] = {
"5 10 2 1",
" 	c #FFFFFF",
".	c #000000",
".....",
"    .",
"   . ",
"   . ",
"  .  ",
"  .  ",
" .   ",
" .   ",
"     ",
"     "};
