/* XPM */
static char * font102265_xpm[] = {
"3 10 2 1",
" 	c None",
".	c #000000",
"   ",
".  ",
" . ",
"  .",
" . ",
".  ",
"   ",
"...",
"   ",
"   "};
