/* XPM */
static char * font100031_xpm[] = {
"2 10 2 1",
" 	c #FFFFFF",
".	c #000000",
" .",
"..",
" .",
" .",
" .",
" .",
" .",
" .",
"  ",
"  "};
