/* XPM */
static char * font100067_xpm[] = {
"5 10 2 1",
" 	c #FFFFFF",
".	c #000000",
"     ",
"     ",
" .. .",
".  ..",
".   .",
".   .",
".  ..",
" .. .",
"    .",
" ... "};
