/* XPM */
static char * font100021_xpm[] = {
"1 10 2 1",
" 	c #FFFFFF",
".	c #000000",
".",
".",
".",
".",
".",
".",
" ",
".",
" ",
" "};
