/* XPM */
static char * font100057_xpm[] = {
"9 10 2 1",
" 	c None",
".	c #000000",
".   .   .",
".   .   .",
" .  .  . ",
" .  .  . ",
" . . . . ",
"  .   .  ",
"  .   .  ",
"  .   .  ",
"         ",
"         "};
