/* XPM */
static char * font100060_xpm[] = {
"2 10 2 1",
" 	c #FFFFFF",
".	c #000000",
". ",
" .",
"  ",
"  ",
"  ",
"  ",
"  ",
"  ",
"  ",
"  "};
