/* XPM */
static char * font10005a_xpm[] = {
"5 10 2 1",
" 	c #FFFFFF",
".	c #000000",
".....",
"    .",
"   . ",
"  .  ",
"  .  ",
" .   ",
".    ",
".....",
"     ",
"     "};
