/* XPM */
static char * font100036_xpm[] = {
"5 10 2 1",
" 	c None",
".	c #000000",
" ... ",
".   .",
".    ",
". .. ",
"..  .",
".   .",
".   .",
" ... ",
"     ",
"     "};
