/* XPM */
static char * font100048_xpm[] = {
"6 10 2 1",
" 	c None",
".	c #000000",
".    .",
".    .",
".    .",
"......",
".    .",
".    .",
".    .",
".    .",
"      ",
"      "};
