/* XPM */
static char * font10004d_xpm[] = {
"7 10 2 1",
" 	c #FFFFFF",
".	c #000000",
".     .",
"..   ..",
"..   ..",
". . . .",
". . . .",
".  .  .",
".  .  .",
".  .  .",
"       ",
"       "};
