/* XPM */
static char * font100029_xpm[] = {
"3 10 2 1",
" 	c #FFFFFF",
".	c #000000",
".  ",
" . ",
" . ",
"  .",
"  .",
"  .",
"  .",
" . ",
" . ",
".  "};
