/* XPM */
static char * font10006c_xpm[] = {
"1 10 2 1",
" 	c #FFFFFF",
".	c #000000",
".",
".",
".",
".",
".",
".",
".",
".",
" ",
" "};
