/* XPM */
static char * font10003f_xpm[] = {
"4 10 2 1",
" 	c None",
".	c #000000",
" .. ",
".  .",
"   .",
"  . ",
" .  ",
" .  ",
"    ",
" .  ",
"    ",
"    "};
