/* XPM */
static char * font10006b_xpm[] = {
"4 10 2 1",
" 	c None",
".	c #000000",
".   ",
".   ",
".  .",
". . ",
"..  ",
". . ",
".  .",
".  .",
"    ",
"    "};
