/* XPM */
static char * font10006f_xpm[] = {
"5 10 2 1",
" 	c #FFFFFF",
".	c #000000",
"     ",
"     ",
" ... ",
".   .",
".   .",
".   .",
".   .",
" ... ",
"     ",
"     "};
