/* XPM */
static char * font100026_xpm[] = {
"6 10 2 1",
" 	c None",
".	c #000000",
"  .   ",
" . .  ",
" . .  ",
" ..   ",
". .  .",
".  .. ",
".  .. ",
" ..  .",
"      ",
"      "};
