/* XPM */
static char * font100022_xpm[] = {
"3 10 2 1",
" 	c None",
".	c #000000",
". .",
". .",
"   ",
"   ",
"   ",
"   ",
"   ",
"   ",
"   ",
"   "};
