/* XPM */
static char * font102264_xpm[] = {
"3 10 2 1",
" 	c #FFFFFF",
".	c #000000",
"   ",
"  .",
" . ",
".  ",
" . ",
"  .",
"   ",
"...",
"   ",
"   "};
