/* XPM */
static char * font10002c_xpm[] = {
"2 10 2 1",
" 	c #FFFFFF",
".	c #000000",
"  ",
"  ",
"  ",
"  ",
"  ",
"  ",
"  ",
" .",
" .",
". "};
