/* XPM */
static char * font100041_xpm[] = {
"7 10 2 1",
" 	c #FFFFFF",
".	c #000000",
"   .   ",
"   .   ",
"  . .  ",
"  . .  ",
" .   . ",
" ..... ",
".     .",
".     .",
"       ",
"       "};
