/* XPM */
static char * font10003d_xpm[] = {
"4 10 2 1",
" 	c #FFFFFF",
".	c #000000",
"    ",
"    ",
"    ",
"....",
"    ",
"....",
"    ",
"    ",
"    ",
"    "};
