/* XPM */
static char * ksimus_xpm[] = {
"38 38 3 1",
" 	c None",
".	c #000000",
"+	c #00FF00",
"                                      ",
"                                      ",
"                                      ",
"                                      ",
"                                      ",
"                     ....             ",
"                  ....  .             ",
"              ....       .            ",
"          ....           .            ",
"         .               .            ",
"         .               .            ",
"         .                .           ",
"         .                .           ",
"          .     ....      .           ",
"       +++.    ..  .      .           ",
"     +++++.    ..  .       .   ++     ",
"     +++  .     .. .   ..  .+++++     ",
"           .    ..   ...   .+++       ",
"           .     ..   .     .         ",
"           .    ... . .     .         ",
"           ..   .. ....     .         ",
"            .   .  ....     .         ",
"            .  ..   ........ .        ",
"            .  ..   .. ....  .        ",
"             .  ... .        .        ",
"             .   ...         .        ",
"             .                .       ",
"             .                .       ",
"             +.               .       ",
"         +++++.              ...      ",
"         ++++ .          ....         ",
"         +    .      ....             ",
"               . ....                 ",
"               ...                    ",
"                                      ",
"                                      ",
"                                      ",
"                                      "};
