/* XPM */
static char * mini_ksimus_xpm[] = {
"19 19 3 1",
" 	c None",
".	c #000000",
"+	c #00FF00",
"                   ",
"                   ",
"           .       ",
"       .... .      ",
"     ..     .      ",
"    .              ",
"        ..   .     ",
"   ++. ...   .     ",
"   + .  .  . .++   ",
"     .  .. .  .    ",
"      . ....  .    ",
"      ... .....    ",
"      . ..    .    ",
"      .        .   ",
"     ++.       .   ",
"    ++ .   ...     ",
"       ...         ",
"                   ",
"                   "};
